# xmcd
#
# Track frame offsets:
#	150
#	21047
#	44504
#	62039
#	75435
#	93011
#	107574
#	130133
#	144216
#	164706
#	183582
#	207428
#	219514
#	237099
#	255724
#	268626
#	280762
#	304514
#	324967
#	356063
#
# Disc length: 4788 seconds
#
# Revision: 0
# Processed by: cddbd v1.5.2PL0 Copyright (c) Steve Scherf et al.
# Submitted via: EasyCDDAExtractor 8.2.3.1
#
DISCID=1912b214
DTITLE=TONY JOE WHITE - The Best of... vol.1  CD-2   
DYEAR=2004
DGENRE=Blues
TTITLE0=Across From Midnight
TTITLE1=(You're Gonna Look)Good in Blues
TTITLE2=High Horse
TTITLE3=Scratch My Back
TTITLE4=Tina
TTITLE5=Look of Love
TTITLE6=The Organic Shuffle
TTITLE7=The Train I'm On
TTITLE8=Selena
TTITLE9=Menutha
TTITLE10=Bi-Yo Rhythm
TTITLE11=Woodpecker
TTITLE12=Way Down South
TTITLE13=These Arms of Mine
TTITLE14=Trveling Bone
TTITLE15=300 Pounds of Hongry
TTITLE16=Clovis Green
TTITLE17=Living Off the Land
TTITLE18=I Believe I've Lost My Way
TTITLE19=One Hot July (String Ensemble)
EXTD=
EXTT0=
EXTT1=
EXTT2=
EXTT3=
EXTT4=
EXTT5=
EXTT6=
EXTT7=
EXTT8=
EXTT9=
EXTT10=
EXTT11=
EXTT12=
EXTT13=
EXTT14=
EXTT15=
EXTT16=
EXTT17=
EXTT18=
EXTT19=
PLAYORDER=
